<svg width="24" height="26" viewBox="0 0 24 26" fill="none" xmlns="http://www.w3.org/2000/svg">
<path d="M20 7.83907H4C2.89543 7.83907 2 8.76795 2 9.91378V20.2873C2 21.4332 2.89543 22.3621 4 22.3621H20C21.1046 22.3621 22 21.4332 22 20.2873V9.91378C22 8.76795 21.1046 7.83907 20 7.83907Z" stroke="#CB92B1" stroke-width="2" stroke-linecap="round" stroke-linejoin="round"/>
<path d="M16 22.3621V5.76436C16 5.21412 15.7893 4.6864 15.4142 4.29732C15.0391 3.90824 14.5304 3.68965 14 3.68965H10C9.46957 3.68965 8.96086 3.90824 8.58579 4.29732C8.21071 4.6864 8 5.21412 8 5.76436V22.3621" stroke="#CB92B1" stroke-width="2" stroke-linecap="round" stroke-linejoin="round"/>
</svg>
