<svg width="24" height="26" viewBox="0 0 24 26" fill="none" xmlns="http://www.w3.org/2000/svg">
<path d="M16 9.1638C17.5913 9.1638 19.1174 9.81955 20.2426 10.9868C21.3679 12.1541 22 13.7372 22 15.3879V22.6494H18V15.3879C18 14.8377 17.7893 14.31 17.4142 13.9209C17.0391 13.5318 16.5304 13.3132 16 13.3132C15.4696 13.3132 14.9609 13.5318 14.5858 13.9209C14.2107 14.31 14 14.8377 14 15.3879V22.6494H10V15.3879C10 13.7372 10.6321 12.1541 11.7574 10.9868C12.8826 9.81955 14.4087 9.1638 16 9.1638V9.1638Z" stroke="#CB92B1" stroke-width="2" stroke-linecap="round" stroke-linejoin="round"/>
<path d="M6 10.2011H2V22.6494H6V10.2011Z" stroke="#CB92B1" stroke-width="2" stroke-linecap="round" stroke-linejoin="round"/>
<path d="M4 7.08908C5.10457 7.08908 6 6.1602 6 5.01437C6 3.86854 5.10457 2.93966 4 2.93966C2.89543 2.93966 2 3.86854 2 5.01437C2 6.1602 2.89543 7.08908 4 7.08908Z" stroke="#CB92B1" stroke-width="2" stroke-linecap="round" stroke-linejoin="round"/>
</svg>
